<?xml version="1.0" encoding="UTF-8" standalone="no"?>
<svg
   xmlns:dc="http://purl.org/dc/elements/1.1/"
   xmlns:cc="http://creativecommons.org/ns#"
   xmlns:rdf="http://www.w3.org/1999/02/22-rdf-syntax-ns#"
   xmlns:svg="http://www.w3.org/2000/svg"
   xmlns="http://www.w3.org/2000/svg"
   xmlns:sodipodi="http://sodipodi.sourceforge.net/DTD/sodipodi-0.dtd"
   xmlns:inkscape="http://www.inkscape.org/namespaces/inkscape"
   inkscape:version="1.0 (4035a4fb49, 2020-05-01)"
   sodipodi:docname="home_icon.svg"
   xml:space="preserve"
   style="enable-background:new 0 0 387.9 387.9;"
   viewBox="0 0 387.9 387.9"
   y="0px"
   x="0px"
   id="Layer_1"
   version="1.1"><metadata
   id="metadata38"><rdf:RDF><cc:Work
       rdf:about=""><dc:format>image/svg+xml</dc:format><dc:type
         rdf:resource="http://purl.org/dc/dcmitype/StillImage" /></cc:Work></rdf:RDF></metadata><defs
   id="defs36" /><sodipodi:namedview
   inkscape:current-layer="Layer_1"
   inkscape:window-maximized="1"
   inkscape:window-y="-8"
   inkscape:window-x="-8"
   inkscape:cy="193.95"
   inkscape:cx="82.501119"
   inkscape:zoom="1.7272493"
   showgrid="false"
   id="namedview34"
   inkscape:window-height="837"
   inkscape:window-width="1600"
   inkscape:pageshadow="2"
   inkscape:pageopacity="0"
   guidetolerance="10"
   gridtolerance="10"
   objecttolerance="10"
   borderopacity="1"
   bordercolor="#666666"
   pagecolor="#ffffff" />
<style
   id="style25"
   type="text/css">
	.st0{fill:#258ACE;}
	.st1{fill:#FDB735;}
	.st2{fill:#36C136;}
	.st3{fill:#FD2475;}
	.st4{fill:#895EAD;}
	.st5{fill:#D83632;}
	.st6{fill:#30D4A2;}
	.st7{fill:#46CCCC;}
	.st8{fill:#4CC3CB;}
	.st9{fill:#60B0E2;}
	.st10{fill:none;stroke:#000000;stroke-width:14;stroke-miterlimit:10;}
	.st11{fill:#FFFFFF;}
</style>
<circle
   style="fill:#a90f29;fill-opacity:1"
   id="circle27"
   r="168.8"
   cy="194"
   cx="194" />
<g
   id="g31">
	<path
   id="path29"
   d="M250.9,237.6c0,8.3-0.1,16.7,0.1,25c0.1,2.8-0.7,3.8-3.6,3.7c-10.8-0.2-21.7-0.2-32.5,0c-3.1,0.1-3.9-1-3.9-4   c0.2-9.5-0.1-19,0.1-28.5c0.1-3.2-0.7-4.4-4.1-4.3c-8.7,0.2-17.3,0.2-26,0c-3.1-0.1-4,1-3.9,4c0.2,9.5-0.1,19,0.1,28.5   c0.1,3.2-0.7,4.3-4.1,4.3c-10.3-0.2-20.7-0.2-31,0c-3.4,0.1-4.2-1-4.1-4.2c0.1-16.3-0.1-32.7,0.2-49c0-3.8-0.9-4.9-4.7-4.7   c-5,0.3-10,0.1-15,0.1c-1.6,0-3.5,0.6-4.4-1.3c-1-2.1,0.6-3.4,1.9-4.7c17.1-18,34.2-36,51.3-54c7.8-8.2,15.7-16.3,23.3-24.7   c2.5-2.7,4.2-2.8,6.8-0.1c24.8,26.3,49.7,52.4,74.6,78.6c1.3,1.3,2.8,2.6,1.9,4.7c-0.9,2-2.8,1.4-4.4,1.4c-5,0.1-10,0.2-15,0   c-2.9-0.1-3.7,0.8-3.6,3.7C251,220.6,250.9,229.1,250.9,237.6z"
   class="st11" />
</g>
</svg>
