<?xml version="1.0" encoding="UTF-8" standalone="no"?>
<svg
   xmlns:dc="http://purl.org/dc/elements/1.1/"
   xmlns:cc="http://creativecommons.org/ns#"
   xmlns:rdf="http://www.w3.org/1999/02/22-rdf-syntax-ns#"
   xmlns:svg="http://www.w3.org/2000/svg"
   xmlns="http://www.w3.org/2000/svg"
   xmlns:sodipodi="http://sodipodi.sourceforge.net/DTD/sodipodi-0.dtd"
   xmlns:inkscape="http://www.inkscape.org/namespaces/inkscape"
   inkscape:version="1.0 (4035a4fb49, 2020-05-01)"
   sodipodi:docname="location_icon.svg"
   xml:space="preserve"
   style="enable-background:new 0 0 387.9 387.9;"
   viewBox="0 0 387.9 387.9"
   y="0px"
   x="0px"
   id="Layer_1"
   version="1.1"><metadata
   id="metadata887"><rdf:RDF><cc:Work
       rdf:about=""><dc:format>image/svg+xml</dc:format><dc:type
         rdf:resource="http://purl.org/dc/dcmitype/StillImage" /></cc:Work></rdf:RDF></metadata><defs
   id="defs885" /><sodipodi:namedview
   inkscape:current-layer="Layer_1"
   inkscape:window-maximized="1"
   inkscape:window-y="-8"
   inkscape:window-x="-8"
   inkscape:cy="193.95"
   inkscape:cx="193.95"
   inkscape:zoom="1.7272493"
   showgrid="false"
   id="namedview883"
   inkscape:window-height="837"
   inkscape:window-width="1600"
   inkscape:pageshadow="2"
   inkscape:pageopacity="0"
   guidetolerance="10"
   gridtolerance="10"
   objecttolerance="10"
   borderopacity="1"
   bordercolor="#666666"
   pagecolor="#ffffff" />
<style
   id="style876"
   type="text/css">
	.st0{fill:#258ACE;}
	.st1{fill:#FDB735;}
	.st2{fill:#36C136;}
	.st3{fill:#FD2475;}
	.st4{fill:#895EAD;}
	.st5{fill:#D83632;}
	.st6{fill:#30D4A2;}
	.st7{fill:#46CCCC;}
	.st8{fill:#4CC3CB;}
	.st9{fill:#60B0E2;}
	.st10{fill:none;stroke:#000000;stroke-width:14;stroke-miterlimit:10;}
	.st11{fill:#FFFFFF;}
</style>
<circle
   style="fill:#a90f29;fill-opacity:1"
   id="circle878"
   r="168.8"
   cy="194"
   cx="194" />
<path
   id="path880"
   d="M194.1,118.4c-41.2-0.2-69.7,41.7-54.4,78.7c11,26.6,28.9,48.5,48,69.5c3.7,4.1,8.9,3.8,12.8-0.2  c3.4-3.5,6.5-7.2,9.6-10.9c14.5-17.5,27.8-35.6,37.4-56.4C264.9,160.6,234.8,118.2,194.1,118.4z M193.6,202.1  c-14.5-0.3-26-12.2-25.9-26.7c0.1-14.5,11.9-26.1,26.5-26.1c14.5,0.1,26.3,12,26.3,26.4C220.4,190.4,208.2,202.4,193.6,202.1z"
   class="st11" />
</svg>
