<?xml version="1.0" encoding="UTF-8" standalone="no"?>
<svg
   xmlns:dc="http://purl.org/dc/elements/1.1/"
   xmlns:cc="http://creativecommons.org/ns#"
   xmlns:rdf="http://www.w3.org/1999/02/22-rdf-syntax-ns#"
   xmlns:svg="http://www.w3.org/2000/svg"
   xmlns="http://www.w3.org/2000/svg"
   xmlns:sodipodi="http://sodipodi.sourceforge.net/DTD/sodipodi-0.dtd"
   xmlns:inkscape="http://www.inkscape.org/namespaces/inkscape"
   inkscape:version="1.0 (4035a4fb49, 2020-05-01)"
   sodipodi:docname="phone_icon.svg"
   xml:space="preserve"
   style="enable-background:new 0 0 387.9 387.9;"
   viewBox="0 0 387.9 387.9"
   y="0px"
   x="0px"
   id="Layer_1"
   version="1.1"><metadata
   id="metadata2077"><rdf:RDF><cc:Work
       rdf:about=""><dc:format>image/svg+xml</dc:format><dc:type
         rdf:resource="http://purl.org/dc/dcmitype/StillImage" /></cc:Work></rdf:RDF></metadata><defs
   id="defs2075" /><sodipodi:namedview
   inkscape:current-layer="Layer_1"
   inkscape:window-maximized="1"
   inkscape:window-y="-8"
   inkscape:window-x="-8"
   inkscape:cy="193.95"
   inkscape:cx="82.501118"
   inkscape:zoom="1.7272493"
   showgrid="false"
   id="namedview2073"
   inkscape:window-height="837"
   inkscape:window-width="1600"
   inkscape:pageshadow="2"
   inkscape:pageopacity="0"
   guidetolerance="10"
   gridtolerance="10"
   objecttolerance="10"
   borderopacity="1"
   bordercolor="#666666"
   pagecolor="#ffffff" />
<style
   id="style2066"
   type="text/css">
	.st0{fill:#258ACE;}
	.st1{fill:#FDB735;}
	.st2{fill:#36C136;}
	.st3{fill:#FD2475;}
	.st4{fill:#895EAD;}
	.st5{fill:#D83632;}
	.st6{fill:#30D4A2;}
	.st7{fill:#46CCCC;}
	.st8{fill:#4CC3CB;}
	.st9{fill:#60B0E2;}
	.st10{fill:none;stroke:#000000;stroke-width:14;stroke-miterlimit:10;}
	.st11{fill:#FFFFFF;}
</style>
<circle
   style="fill:#a90f29;fill-opacity:1"
   r="168.8"
   id="circle2068"
   cy="194"
   cx="194" />
<path
   id="path2070"
   d="M227.3,258.4c-7.1-0.2-14.6-1.7-21.5-5.1c-30.3-15.2-54.5-36.7-69.6-67.6c-2.5-5.1-4.5-10.4-5.8-15.9  c-3.4-14.7,2-28.8,14.2-37.2c6.8-4.7,11.9-3.9,16.5,2.9c5,7.3,10.3,14.3,14.3,22.2c3.1,6.1,4.1,11.6-1.4,17.7  c-6.9,7.6-6.5,16.1,0,23.9c4,4.9,8.2,9.7,12.6,14.1c7.3,7.4,14.8,8.4,24.1,3.9c1.2-0.6,2.5-1.1,3.5-1.9c7.9-6.6,15.4-5.4,23,0.5  c5.5,4.3,11.7,7.6,16.7,12.6c5.8,5.7,6,9.5,1.4,16.3C248.8,254.6,239.2,258.2,227.3,258.4z"
   class="st11" />
</svg>
